REM DIRINDEX 1\2,1\3,1\4,1\5
REM DIRNAME cjc046,folder01,folder02,folder03,folder04
TITLE ""
FILE "071.mp3" MP3
  TRACK 01 AUDIO
    TITLE "0:"
    INDEX 01 00:00:00
  TRACK 02 AUDIO
    TITLE "2:cjc046_1384"
    INDEX 01 00:00:15
  TRACK 03 AUDIO
    TITLE "0:"
    INDEX 01 00:01:13
  TRACK 04 AUDIO
    TITLE "3:cjc046_1385"
    INDEX 01 00:01:42
  TRACK 05 AUDIO
    TITLE "0:"
    INDEX 01 00:02:22
  TRACK 06 AUDIO
    TITLE "4:cjc046_1386"
    INDEX 01 00:02:38
  TRACK 07 AUDIO
    TITLE "0:"
    INDEX 01 00:03:37
  TRACK 08 AUDIO
    TITLE "2:cjc046_1387"
    INDEX 01 00:04:40
  TRACK 09 AUDIO
    TITLE "0:"
    INDEX 01 00:05:71
  TRACK 10 AUDIO
    TITLE "3:cjc046_1388"
    INDEX 01 00:06:10
  TRACK 11 AUDIO
    TITLE "0:"
    INDEX 01 00:07:64
  TRACK 12 AUDIO
    TITLE "4:cjc046_1389"
    INDEX 01 00:07:72
  TRACK 13 AUDIO
    TITLE "0:"
    INDEX 01 00:09:26
  TRACK 14 AUDIO
    TITLE "2:cjc046_1390"
    INDEX 01 00:10:39
  TRACK 15 AUDIO
    TITLE "0:"
    INDEX 01 00:11:44
  TRACK 16 AUDIO
    TITLE "3:cjc046_1391"
    INDEX 01 00:11:70
  TRACK 17 AUDIO
    TITLE "0:"
    INDEX 01 00:13:24
  TRACK 18 AUDIO
    TITLE "4:cjc046_1392"
    INDEX 01 00:13:33
  TRACK 19 AUDIO
    TITLE "0:"
    INDEX 01 00:14:37
  TRACK 20 AUDIO
    TITLE "2:cjc046_1393"
    INDEX 01 00:15:40
  TRACK 21 AUDIO
    TITLE "0:"
    INDEX 01 00:16:38
  TRACK 22 AUDIO
    TITLE "3:cjc046_1394"
    INDEX 01 00:16:65
  TRACK 23 AUDIO
    TITLE "0:"
    INDEX 01 00:17:70
  TRACK 24 AUDIO
    TITLE "4:cjc046_1395"
    INDEX 01 00:18:01
  TRACK 25 AUDIO
    TITLE "0:"
    INDEX 01 00:18:74
  TRACK 26 AUDIO
    TITLE "2:cjc046_1396"
    INDEX 01 00:20:12
  TRACK 27 AUDIO
    TITLE "0:"
    INDEX 01 00:21:13
  TRACK 28 AUDIO
    TITLE "3:cjc046_1397"
    INDEX 01 00:21:27
  TRACK 29 AUDIO
    TITLE "0:"
    INDEX 01 00:22:48
  TRACK 30 AUDIO
    TITLE "4:cjc046_1398"
    INDEX 01 00:22:60
  TRACK 31 AUDIO
    TITLE "0:"
    INDEX 01 00:23:61
  TRACK 32 AUDIO
    TITLE "2:cjc046_1399"
    INDEX 01 00:24:69
  TRACK 33 AUDIO
    TITLE "0:"
    INDEX 01 00:25:68
  TRACK 34 AUDIO
    TITLE "3:cjc046_1400"
    INDEX 01 00:26:18
  TRACK 35 AUDIO
    TITLE "0:"
    INDEX 01 00:27:67
  TRACK 36 AUDIO
    TITLE "4:cjc046_1401"
    INDEX 01 00:28:06
  TRACK 37 AUDIO
    TITLE "0:"
    INDEX 01 00:29:05
  TRACK 38 AUDIO
    TITLE "2:cjc046_1402"
    INDEX 01 00:30:12
  TRACK 39 AUDIO
    TITLE "0:"
    INDEX 01 00:31:14
  TRACK 40 AUDIO
    TITLE "3:cjc046_1403"
    INDEX 01 00:31:41
  TRACK 41 AUDIO
    TITLE "0:"
    INDEX 01 00:32:33
  TRACK 42 AUDIO
    TITLE "4:cjc046_1404"
    INDEX 01 00:32:47
  TRACK 43 AUDIO
    TITLE "0:"
    INDEX 01 00:33:48
  TRACK 44 AUDIO
    TITLE "2:cjc046_1405"
    INDEX 01 00:34:63
  TRACK 45 AUDIO
    TITLE "0:"
    INDEX 01 00:35:64
  TRACK 46 AUDIO
    TITLE "3:cjc046_1406"
    INDEX 01 00:36:15
  TRACK 47 AUDIO
    TITLE "0:"
    INDEX 01 00:37:18
  TRACK 48 AUDIO
    TITLE "4:cjc046_1407"
    INDEX 01 00:37:32
  TRACK 49 AUDIO
    TITLE "0:"
    INDEX 01 00:38:35
  TRACK 50 AUDIO
    TITLE "2:cjc046_1408"
    INDEX 01 00:39:43
  TRACK 51 AUDIO
    TITLE "0:"
    INDEX 01 00:40:50
  TRACK 52 AUDIO
    TITLE "3:cjc046_1409"
    INDEX 01 00:41:02
  TRACK 53 AUDIO
    TITLE "0:"
    INDEX 01 00:42:23
  TRACK 54 AUDIO
    TITLE "4:cjc046_1410"
    INDEX 01 00:42:35
  TRACK 55 AUDIO
    TITLE "0:"
    INDEX 01 00:43:44
  TRACK 56 AUDIO
    TITLE "2:cjc046_1411"
    INDEX 01 00:44:50
  TRACK 57 AUDIO
    TITLE "0:"
    INDEX 01 00:45:61
  TRACK 58 AUDIO
    TITLE "3:cjc046_1412"
    INDEX 01 00:46:15
  TRACK 59 AUDIO
    TITLE "0:"
    INDEX 01 00:47:46
  TRACK 60 AUDIO
    TITLE "4:cjc046_1413"
    INDEX 01 00:47:58
  TRACK 61 AUDIO
    TITLE "0:"
    INDEX 01 00:48:71
